<mxfile host="65bd71144e">
    <diagram name="Page-1" id="tuon_g_4rtUmrCNSt_cw">
        <mxGraphModel dx="1920" dy="1408" grid="1" gridSize="10" guides="1" tooltips="1" connect="1" arrows="1" fold="1" page="1" pageScale="1" pageWidth="3000" pageHeight="3000" background="#000000" math="0" shadow="0">
            <root>
                <mxCell id="0"/>
                <mxCell id="1" parent="0"/>
                <mxCell id="7xqwLpyVegUSBJ_16_x_-1" value="DisasterVictim" style="swimlane;fontStyle=1;align=center;verticalAlign=top;childLayout=stackLayout;horizontal=1;startSize=26;horizontalStack=0;resizeParent=1;resizeParentMax=0;resizeLast=0;collapsible=1;marginBottom=0;whiteSpace=wrap;html=1;" parent="1" vertex="1">
                    <mxGeometry x="1070" y="770" width="430" height="660" as="geometry"/>
                </mxCell>
                <mxCell id="7xqwLpyVegUSBJ_16_x_-2" value="&lt;div&gt;- firstName: String&lt;/div&gt;&lt;div&gt;- lastName: String&lt;/div&gt;&lt;div&gt;- dateOfBirth: String&lt;/div&gt;&lt;div&gt;- comments: String&lt;/div&gt;&lt;div&gt;- ASSIGNED_SOCIAL_ID: int&lt;/div&gt;&lt;div&gt;- medicalRecords: ArrayList&amp;lt;MedicalRecord&amp;gt;&lt;/div&gt;&lt;div&gt;- familyConnections: ArrayList&amp;lt;FamilyRelation&amp;gt;&lt;/div&gt;&lt;div&gt;- ENTRY_DATE: String&lt;/div&gt;&lt;div&gt;- personalBelongings: ArrayList&amp;lt;Supply&amp;gt;&lt;/div&gt;&lt;div&gt;- gender: String&lt;/div&gt;&lt;div&gt;- &lt;u&gt;counter&lt;/u&gt;: int&lt;/div&gt;&lt;div&gt;- approximateAge: int&lt;br&gt;&lt;/div&gt;&lt;div&gt;- dietaryRestrictions: ArrayList&amp;lt;DietaryRestriction&amp;gt;&lt;br&gt;&lt;/div&gt;" style="text;strokeColor=none;fillColor=none;align=left;verticalAlign=top;spacingLeft=4;spacingRight=4;overflow=hidden;rotatable=0;points=[[0,0.5],[1,0.5]];portConstraint=eastwest;whiteSpace=wrap;html=1;" parent="7xqwLpyVegUSBJ_16_x_-1" vertex="1">
                    <mxGeometry y="26" width="430" height="194" as="geometry"/>
                </mxCell>
                <mxCell id="7xqwLpyVegUSBJ_16_x_-3" value="" style="line;strokeWidth=1;fillColor=none;align=left;verticalAlign=middle;spacingTop=-1;spacingLeft=3;spacingRight=3;rotatable=0;labelPosition=right;points=[];portConstraint=eastwest;strokeColor=inherit;" parent="7xqwLpyVegUSBJ_16_x_-1" vertex="1">
                    <mxGeometry y="220" width="430" height="8" as="geometry"/>
                </mxCell>
                <mxCell id="7xqwLpyVegUSBJ_16_x_-4" value="&lt;div&gt;+ DisasterVictim(firstName: String, ENTRY_DATE: String)&lt;/div&gt;&lt;div&gt;+ getFirstName(): String&lt;/div&gt;&lt;div&gt;+ getLastName(): String&lt;/div&gt;&lt;div&gt;+ getDateOfBirth(): String&lt;/div&gt;&lt;div&gt;+ getComments(): String&lt;/div&gt;&lt;div&gt;+ getMedicalRecords(): ArrayList&amp;lt;MedicalRecord&amp;gt;&lt;/div&gt;&lt;div&gt;+ getEntryDate(): String&lt;/div&gt;&lt;div&gt;+ getAssignedSocialID(): int&lt;/div&gt;&lt;div&gt;+ getPersonalBelongings: ArrayList&amp;lt;Supply&amp;gt;&lt;/div&gt;&lt;div&gt;+ getFamilyConnections:&amp;nbsp;&lt;span style=&quot;background-color: initial;&quot;&gt;ArrayList&amp;lt;FamilyRelation&amp;gt;&lt;/span&gt;&lt;/div&gt;&lt;div&gt;+ getGender(): String&lt;/div&gt;&lt;div&gt;+ getApproximateAge(): int&lt;br&gt;&lt;/div&gt;&lt;div&gt;+ setFirstName(firstName:String)&lt;/div&gt;&lt;div&gt;+ setLastName(lastName: String): void&lt;/div&gt;&lt;div&gt;+ setDateOfBirth(dateOfBirth: String): void&lt;/div&gt;&lt;div&gt;+ setComments(comments: String): void&lt;/div&gt;&lt;div&gt;+ setMedicalRecords(medicalRecords: ArrayList&amp;lt;MedicalRecord&amp;gt;): void&lt;/div&gt;&lt;div&gt;+ setPersonalBelongings(supplies: ArrayList&amp;lt;Supply&amp;gt;)&lt;/div&gt;&lt;div&gt;+ setFamilyConnections(relation: ArrayList&amp;lt;FamilyRelation&amp;gt;):void&lt;/div&gt;&lt;div&gt;+ setGender(gender: String): void&lt;/div&gt;&lt;div&gt;+ setApproximateAge(approximateAge: int): void&lt;br&gt;&lt;/div&gt;&lt;div&gt;+&amp;nbsp;&lt;u&gt;generateSocialID()&lt;/u&gt;: int&lt;/div&gt;&lt;div&gt;+ addPersonalBelonging(supply: Supply) :void&lt;/div&gt;&lt;div&gt;+ removePersonalBelonging(supply: Supply) :void&lt;/div&gt;&lt;div&gt;+ addFamilyConnection(familyConnection: FamilyRelation): void&lt;/div&gt;&lt;div&gt;+ removeFamilyConnection(familyConnection: FamilyRelation): void&lt;/div&gt;&lt;div&gt;+ addMedicalRecord(medicalRecord:MedicalRecord):void&lt;/div&gt;&lt;div&gt;+ addDietaryRestriction(restriction: DietaryRestriction): void&amp;nbsp;&lt;/div&gt;&lt;div&gt;+ removeDietaryRestriction(restriction: DietaryRestriction): void&lt;br&gt;&lt;/div&gt;&lt;div&gt;&lt;br&gt;&lt;/div&gt;" style="text;strokeColor=none;fillColor=none;align=left;verticalAlign=top;spacingLeft=4;spacingRight=4;overflow=hidden;rotatable=0;points=[[0,0.5],[1,0.5]];portConstraint=eastwest;whiteSpace=wrap;html=1;" parent="7xqwLpyVegUSBJ_16_x_-1" vertex="1">
                    <mxGeometry y="228" width="430" height="432" as="geometry"/>
                </mxCell>
                <mxCell id="3gZXW8orgrcEtshI8kYw-12" value="&lt;span style=&quot;font-size: 12px; font-weight: 700; text-wrap: wrap; background-color: rgb(0, 0, 0);&quot;&gt;FamilyRelation&lt;/span&gt;" style="endArrow=none;endSize=16;endFill=0;html=1;rounded=0;exitX=0.173;exitY=1.001;exitDx=0;exitDy=0;exitPerimeter=0;entryX=0.001;entryY=0.836;entryDx=0;entryDy=0;entryPerimeter=0;" parent="7xqwLpyVegUSBJ_16_x_-1" source="7xqwLpyVegUSBJ_16_x_-4" target="7xqwLpyVegUSBJ_16_x_-4" edge="1">
                    <mxGeometry x="0.2432" width="160" relative="1" as="geometry">
                        <mxPoint x="20" y="600" as="sourcePoint"/>
                        <mxPoint x="180" y="600" as="targetPoint"/>
                        <Array as="points">
                            <mxPoint x="74" y="690"/>
                            <mxPoint x="-110" y="690"/>
                            <mxPoint x="-110" y="590"/>
                        </Array>
                        <mxPoint as="offset"/>
                    </mxGeometry>
                </mxCell>
                <mxCell id="7xqwLpyVegUSBJ_16_x_-5" value="Location" style="swimlane;fontStyle=1;align=center;verticalAlign=top;childLayout=stackLayout;horizontal=1;startSize=26;horizontalStack=0;resizeParent=1;resizeParentMax=0;resizeLast=0;collapsible=1;marginBottom=0;whiteSpace=wrap;html=1;" parent="1" vertex="1">
                    <mxGeometry x="670" y="770" width="270" height="340" as="geometry"/>
                </mxCell>
                <mxCell id="7xqwLpyVegUSBJ_16_x_-6" value="&lt;div&gt;- name: String&lt;/div&gt;&lt;div&gt;- address: String&lt;/div&gt;&lt;div&gt;- occupants: ArrayList&amp;lt;DisasterVictim&amp;gt;&lt;/div&gt;&lt;div&gt;- supplies: ArrayList&amp;lt;Supply&amp;gt;&lt;/div&gt;" style="text;strokeColor=none;fillColor=none;align=left;verticalAlign=top;spacingLeft=4;spacingRight=4;overflow=hidden;rotatable=0;points=[[0,0.5],[1,0.5]];portConstraint=eastwest;whiteSpace=wrap;html=1;" parent="7xqwLpyVegUSBJ_16_x_-5" vertex="1">
                    <mxGeometry y="26" width="270" height="64" as="geometry"/>
                </mxCell>
                <mxCell id="7xqwLpyVegUSBJ_16_x_-7" value="" style="line;strokeWidth=1;fillColor=none;align=left;verticalAlign=middle;spacingTop=-1;spacingLeft=3;spacingRight=3;rotatable=0;labelPosition=right;points=[];portConstraint=eastwest;strokeColor=inherit;" parent="7xqwLpyVegUSBJ_16_x_-5" vertex="1">
                    <mxGeometry y="90" width="270" height="8" as="geometry"/>
                </mxCell>
                <mxCell id="7xqwLpyVegUSBJ_16_x_-8" value="&lt;div&gt;+ Location(name:String, address:String)&lt;/div&gt;&lt;div&gt;+ getName(): String&lt;/div&gt;&lt;div&gt;+ setName(name: String)&lt;/div&gt;&lt;div&gt;+ getAddress(): String&lt;/div&gt;&lt;div&gt;+ setAddress(address: String)&lt;/div&gt;&lt;div&gt;+ getOccupants():&amp;nbsp;&lt;span style=&quot;background-color: initial;&quot;&gt;ArrayList&amp;lt;DisasterVictim&amp;gt;&lt;/span&gt;&lt;/div&gt;&lt;div&gt;&lt;span style=&quot;background-color: initial;&quot;&gt;+ setOccupants(occupants: ArrayList&amp;lt;DisasterVictim&amp;gt;)&lt;/span&gt;&lt;/div&gt;&lt;div&gt;+ getSupplies(): ArrayList&amp;lt;Supply&amp;gt;&lt;/div&gt;&lt;div&gt;+ setSupplies(supplies: ArrayList&amp;lt;Supply&amp;gt;)&lt;/div&gt;&lt;div&gt;+ addOccupant(occupant:DisasterVictim)&lt;/div&gt;&lt;div&gt;+ removeOccupant(occupant: DisasterVictim)&lt;/div&gt;&lt;div&gt;+ addSupply(supply: Supply)&lt;/div&gt;&lt;div&gt;+ removeSupply(supply:Supply)&lt;/div&gt;&lt;div&gt;+ allocateSupplyToVictim(supply: Supply, victim: DisasterVictim): void&lt;br&gt;&lt;/div&gt;" style="text;strokeColor=none;fillColor=none;align=left;verticalAlign=top;spacingLeft=4;spacingRight=4;overflow=hidden;rotatable=0;points=[[0,0.5],[1,0.5]];portConstraint=eastwest;whiteSpace=wrap;html=1;" parent="7xqwLpyVegUSBJ_16_x_-5" vertex="1">
                    <mxGeometry y="98" width="270" height="242" as="geometry"/>
                </mxCell>
                <mxCell id="7xqwLpyVegUSBJ_16_x_-9" value="" style="endArrow=diamondThin;endFill=0;endSize=24;html=1;rounded=0;entryX=1;entryY=0.5;entryDx=0;entryDy=0;exitX=0.5;exitY=0;exitDx=0;exitDy=0;" parent="1" source="7xqwLpyVegUSBJ_16_x_-1" target="7xqwLpyVegUSBJ_16_x_-6" edge="1">
                    <mxGeometry width="160" relative="1" as="geometry">
                        <mxPoint x="1040" y="828" as="sourcePoint"/>
                        <mxPoint x="970" y="910" as="targetPoint"/>
                        <Array as="points">
                            <mxPoint x="1285" y="680"/>
                            <mxPoint x="1020" y="680"/>
                            <mxPoint x="1020" y="828"/>
                        </Array>
                    </mxGeometry>
                </mxCell>
                <mxCell id="7xqwLpyVegUSBJ_16_x_-15" value="0..*" style="text;html=1;align=center;verticalAlign=middle;resizable=0;points=[];autosize=1;strokeColor=none;fillColor=none;" parent="1" vertex="1">
                    <mxGeometry x="1280" y="738" width="40" height="30" as="geometry"/>
                </mxCell>
                <mxCell id="7xqwLpyVegUSBJ_16_x_-16" value="1" style="text;html=1;align=center;verticalAlign=middle;resizable=0;points=[];autosize=1;strokeColor=none;fillColor=none;" parent="1" vertex="1">
                    <mxGeometry x="950" y="800" width="30" height="30" as="geometry"/>
                </mxCell>
                <mxCell id="7xqwLpyVegUSBJ_16_x_-18" value="FamilyRelation" style="swimlane;fontStyle=1;align=center;verticalAlign=top;childLayout=stackLayout;horizontal=1;startSize=26;horizontalStack=0;resizeParent=1;resizeParentMax=0;resizeLast=0;collapsible=1;marginBottom=0;whiteSpace=wrap;html=1;" parent="1" vertex="1">
                    <mxGeometry x="1160" y="1510" width="350" height="310" as="geometry"/>
                </mxCell>
                <mxCell id="7xqwLpyVegUSBJ_16_x_-19" value="&lt;div&gt;- personOne: DisasterVictim&lt;/div&gt;&lt;div&gt;- relationshipTo: String&lt;/div&gt;&lt;div&gt;- personTwo: DisasterVictim&lt;/div&gt;&lt;div&gt;- &lt;u&gt;existingRelationships&lt;/u&gt;: Set&amp;lt;FamilyRelation&amp;gt;&lt;/div&gt;" style="text;strokeColor=none;fillColor=none;align=left;verticalAlign=top;spacingLeft=4;spacingRight=4;overflow=hidden;rotatable=0;points=[[0,0.5],[1,0.5]];portConstraint=eastwest;whiteSpace=wrap;html=1;" parent="7xqwLpyVegUSBJ_16_x_-18" vertex="1">
                    <mxGeometry y="26" width="350" height="64" as="geometry"/>
                </mxCell>
                <mxCell id="7xqwLpyVegUSBJ_16_x_-20" value="" style="line;strokeWidth=1;fillColor=none;align=left;verticalAlign=middle;spacingTop=-1;spacingLeft=3;spacingRight=3;rotatable=0;labelPosition=right;points=[];portConstraint=eastwest;strokeColor=inherit;" parent="7xqwLpyVegUSBJ_16_x_-18" vertex="1">
                    <mxGeometry y="90" width="350" height="8" as="geometry"/>
                </mxCell>
                <mxCell id="7xqwLpyVegUSBJ_16_x_-21" value="&lt;div&gt;+ FamilyRelation(personOne: DisasterVictim,&lt;/div&gt;&lt;div&gt;relationshipTo: String, personTwo: DisasterVictim)&lt;/div&gt;&lt;div&gt;+ getPersonOne(): DisasterVictim&lt;/div&gt;&lt;div&gt;+ setPersonOne(personOne: DisasterVictim): void&lt;/div&gt;&lt;div&gt;+ getRelationshipTo(): String&lt;/div&gt;&lt;div&gt;+ setRelationshipTo(relationshipTo: String): void&lt;/div&gt;&lt;div&gt;+ getPersonTwo(): DisasterVictim&lt;/div&gt;&lt;div&gt;+ setPersonTwo(personTwo: DisasterVictim): void&lt;/div&gt;&lt;div&gt;+ isValidRelationship(): boolean&amp;nbsp;&lt;/div&gt;&lt;div&gt;+ isDuplicateRelationship(): boolean&lt;br&gt;&lt;/div&gt;&lt;div&gt;+ &lt;u&gt;addRelationship&lt;/u&gt;(personOne: DisasterVictim, relationshipTo: String, personTwo: DisasterVictim): boolean&lt;br&gt;&lt;/div&gt;" style="text;strokeColor=none;fillColor=none;align=left;verticalAlign=top;spacingLeft=4;spacingRight=4;overflow=hidden;rotatable=0;points=[[0,0.5],[1,0.5]];portConstraint=eastwest;whiteSpace=wrap;html=1;" parent="7xqwLpyVegUSBJ_16_x_-18" vertex="1">
                    <mxGeometry y="98" width="350" height="212" as="geometry"/>
                </mxCell>
                <mxCell id="7xqwLpyVegUSBJ_16_x_-23" value="1" style="text;html=1;align=center;verticalAlign=middle;resizable=0;points=[];autosize=1;strokeColor=none;fillColor=none;" parent="1" vertex="1">
                    <mxGeometry x="1040" y="1360" width="30" height="30" as="geometry"/>
                </mxCell>
                <mxCell id="7xqwLpyVegUSBJ_16_x_-24" value="1" style="text;html=1;align=center;verticalAlign=middle;resizable=0;points=[];autosize=1;strokeColor=none;fillColor=none;" parent="1" vertex="1">
                    <mxGeometry x="1140" y="1435" width="30" height="30" as="geometry"/>
                </mxCell>
                <mxCell id="7xqwLpyVegUSBJ_16_x_-26" value="" style="endArrow=none;dashed=1;html=1;rounded=0;entryX=-0.004;entryY=0.324;entryDx=0;entryDy=0;entryPerimeter=0;" parent="1" target="7xqwLpyVegUSBJ_16_x_-21" edge="1">
                    <mxGeometry width="50" height="50" relative="1" as="geometry">
                        <mxPoint x="1070" y="1460" as="sourcePoint"/>
                        <mxPoint x="1155" y="1654.5" as="targetPoint"/>
                        <Array as="points">
                            <mxPoint x="1070" y="1677"/>
                        </Array>
                    </mxGeometry>
                </mxCell>
                <mxCell id="7xqwLpyVegUSBJ_16_x_-27" value="0..*" style="text;html=1;align=center;verticalAlign=middle;resizable=0;points=[];autosize=1;strokeColor=none;fillColor=none;" parent="1" vertex="1">
                    <mxGeometry x="1120" y="1650" width="40" height="30" as="geometry"/>
                </mxCell>
                <mxCell id="7xqwLpyVegUSBJ_16_x_-28" value="2" style="text;html=1;align=center;verticalAlign=middle;resizable=0;points=[];autosize=1;strokeColor=none;fillColor=none;" parent="1" vertex="1">
                    <mxGeometry x="1070" y="1465" width="30" height="30" as="geometry"/>
                </mxCell>
                <mxCell id="7xqwLpyVegUSBJ_16_x_-29" value="Supply" style="swimlane;fontStyle=1;align=center;verticalAlign=top;childLayout=stackLayout;horizontal=1;startSize=26;horizontalStack=0;resizeParent=1;resizeParentMax=0;resizeLast=0;collapsible=1;marginBottom=0;whiteSpace=wrap;html=1;" parent="1" vertex="1">
                    <mxGeometry x="350" y="760" width="200" height="178" as="geometry"/>
                </mxCell>
                <mxCell id="7xqwLpyVegUSBJ_16_x_-30" value="&lt;div&gt;- type: String&lt;/div&gt;&lt;div&gt;- quantity: int&lt;/div&gt;" style="text;strokeColor=none;fillColor=none;align=left;verticalAlign=top;spacingLeft=4;spacingRight=4;overflow=hidden;rotatable=0;points=[[0,0.5],[1,0.5]];portConstraint=eastwest;whiteSpace=wrap;html=1;" parent="7xqwLpyVegUSBJ_16_x_-29" vertex="1">
                    <mxGeometry y="26" width="200" height="44" as="geometry"/>
                </mxCell>
                <mxCell id="7xqwLpyVegUSBJ_16_x_-31" value="" style="line;strokeWidth=1;fillColor=none;align=left;verticalAlign=middle;spacingTop=-1;spacingLeft=3;spacingRight=3;rotatable=0;labelPosition=right;points=[];portConstraint=eastwest;strokeColor=inherit;" parent="7xqwLpyVegUSBJ_16_x_-29" vertex="1">
                    <mxGeometry y="70" width="200" height="8" as="geometry"/>
                </mxCell>
                <mxCell id="7xqwLpyVegUSBJ_16_x_-32" value="&lt;div&gt;+ Supply(type: String, quantity: int)&lt;/div&gt;&lt;div&gt;+ getType(): String&lt;/div&gt;&lt;div&gt;+ setType(type: string): void&lt;/div&gt;&lt;div&gt;+ getQuantity(): int&lt;/div&gt;&lt;div&gt;+ setQuantity(quantity: int): void&lt;/div&gt;" style="text;strokeColor=none;fillColor=none;align=left;verticalAlign=top;spacingLeft=4;spacingRight=4;overflow=hidden;rotatable=0;points=[[0,0.5],[1,0.5]];portConstraint=eastwest;whiteSpace=wrap;html=1;" parent="7xqwLpyVegUSBJ_16_x_-29" vertex="1">
                    <mxGeometry y="78" width="200" height="100" as="geometry"/>
                </mxCell>
                <mxCell id="7xqwLpyVegUSBJ_16_x_-33" value="Use" style="endArrow=open;endSize=12;dashed=1;html=1;rounded=0;exitX=-0.009;exitY=0.931;exitDx=0;exitDy=0;exitPerimeter=0;" parent="1" source="7xqwLpyVegUSBJ_16_x_-6" edge="1">
                    <mxGeometry x="-0.0207" width="160" relative="1" as="geometry">
                        <mxPoint x="540" y="970" as="sourcePoint"/>
                        <mxPoint x="550" y="856" as="targetPoint"/>
                        <mxPoint as="offset"/>
                    </mxGeometry>
                </mxCell>
                <mxCell id="7xqwLpyVegUSBJ_16_x_-34" value="ReliefService" style="swimlane;fontStyle=1;align=center;verticalAlign=top;childLayout=stackLayout;horizontal=1;startSize=26;horizontalStack=0;resizeParent=1;resizeParentMax=0;resizeLast=0;collapsible=1;marginBottom=0;whiteSpace=wrap;html=1;" parent="1" vertex="1">
                    <mxGeometry x="1750" y="530" width="280" height="390" as="geometry"/>
                </mxCell>
                <mxCell id="7xqwLpyVegUSBJ_16_x_-35" value="&lt;div&gt;- inquirer: Inquirer&lt;/div&gt;&lt;div&gt;- missingPerson: DisasterVictim&lt;/div&gt;&lt;div&gt;- dateOfInquiry: String&lt;/div&gt;&lt;div&gt;- infoProvided: String&lt;/div&gt;&lt;div&gt;- lastKnownLocation: Location&lt;/div&gt;" style="text;strokeColor=none;fillColor=none;align=left;verticalAlign=top;spacingLeft=4;spacingRight=4;overflow=hidden;rotatable=0;points=[[0,0.5],[1,0.5]];portConstraint=eastwest;whiteSpace=wrap;html=1;" parent="7xqwLpyVegUSBJ_16_x_-34" vertex="1">
                    <mxGeometry y="26" width="280" height="84" as="geometry"/>
                </mxCell>
                <mxCell id="7xqwLpyVegUSBJ_16_x_-36" value="" style="line;strokeWidth=1;fillColor=none;align=left;verticalAlign=middle;spacingTop=-1;spacingLeft=3;spacingRight=3;rotatable=0;labelPosition=right;points=[];portConstraint=eastwest;strokeColor=inherit;" parent="7xqwLpyVegUSBJ_16_x_-34" vertex="1">
                    <mxGeometry y="110" width="280" height="8" as="geometry"/>
                </mxCell>
                <mxCell id="7xqwLpyVegUSBJ_16_x_-37" value="&lt;div&gt;+ ReliefService(inquirer: Inquirer, missingPerson: DisasterVictim,&lt;/div&gt;&lt;div&gt;dateOfInquiry:String, infoProvided: String , lastKnownLocation: Location )&lt;/div&gt;&lt;div&gt;+ getInquirer():Inquirer&lt;/div&gt;&lt;div&gt;+ setInquirer(inquirer: Inquirer)&lt;/div&gt;&lt;div&gt;+ getMissingPerson(): DisasterVictim&lt;/div&gt;&lt;div&gt;+ setMissingPerson(missingPerson: DisasterVictim)&lt;/div&gt;&lt;div&gt;+ getDateOfInquiry(): String&lt;/div&gt;&lt;div&gt;+ setDateOfInquiry(dateOfInquiry: String)&lt;/div&gt;&lt;div&gt;+ getInfoProvided(): String&lt;/div&gt;&lt;div&gt;+ setInfoProvided(infoProvided: String)&lt;/div&gt;&lt;div&gt;+ getLastKnownLocation(): Location&lt;/div&gt;&lt;div&gt;+ setLastKnownLocation(lastKnownLocation: Location)&lt;/div&gt;&lt;div&gt;+ getLogDetails(): String&lt;/div&gt;" style="text;strokeColor=none;fillColor=none;align=left;verticalAlign=top;spacingLeft=4;spacingRight=4;overflow=hidden;rotatable=0;points=[[0,0.5],[1,0.5]];portConstraint=eastwest;whiteSpace=wrap;html=1;" parent="7xqwLpyVegUSBJ_16_x_-34" vertex="1">
                    <mxGeometry y="118" width="280" height="272" as="geometry"/>
                </mxCell>
                <mxCell id="7xqwLpyVegUSBJ_16_x_-40" value="" style="endArrow=open;endFill=1;endSize=12;html=1;rounded=0;exitX=-0.005;exitY=0.177;exitDx=0;exitDy=0;exitPerimeter=0;entryX=1.003;entryY=0.753;entryDx=0;entryDy=0;entryPerimeter=0;" parent="1" source="7xqwLpyVegUSBJ_16_x_-37" target="7xqwLpyVegUSBJ_16_x_-2" edge="1">
                    <mxGeometry width="160" relative="1" as="geometry">
                        <mxPoint x="2120" y="1247" as="sourcePoint"/>
                        <mxPoint x="2620.86" y="980.204" as="targetPoint"/>
                        <Array as="points">
                            <mxPoint x="1610" y="696"/>
                            <mxPoint x="1610" y="940"/>
                        </Array>
                    </mxGeometry>
                </mxCell>
                <mxCell id="7xqwLpyVegUSBJ_16_x_-43" value="&lt;span style=&quot;background-color: rgb(0, 0, 0);&quot;&gt;missing person&lt;/span&gt;" style="text;html=1;align=center;verticalAlign=middle;resizable=0;points=[];autosize=1;strokeColor=none;fillColor=none;" parent="1" vertex="1">
                    <mxGeometry x="1560" y="810" width="100" height="30" as="geometry"/>
                </mxCell>
                <mxCell id="7xqwLpyVegUSBJ_16_x_-44" value="Inquirer" style="swimlane;fontStyle=1;align=center;verticalAlign=top;childLayout=stackLayout;horizontal=1;startSize=26;horizontalStack=0;resizeParent=1;resizeParentMax=0;resizeLast=0;collapsible=1;marginBottom=0;whiteSpace=wrap;html=1;" parent="1" vertex="1">
                    <mxGeometry x="1820" y="1022" width="200" height="248" as="geometry"/>
                </mxCell>
                <mxCell id="7xqwLpyVegUSBJ_16_x_-45" value="&lt;div&gt;- FIRST_NAME: String&lt;/div&gt;&lt;div&gt;- LAST_NAME: String&lt;/div&gt;&lt;div&gt;- INFO: String&lt;/div&gt;&lt;div&gt;- SERVICES_PHONE: String&lt;/div&gt;" style="text;strokeColor=none;fillColor=none;align=left;verticalAlign=top;spacingLeft=4;spacingRight=4;overflow=hidden;rotatable=0;points=[[0,0.5],[1,0.5]];portConstraint=eastwest;whiteSpace=wrap;html=1;" parent="7xqwLpyVegUSBJ_16_x_-44" vertex="1">
                    <mxGeometry y="26" width="200" height="74" as="geometry"/>
                </mxCell>
                <mxCell id="7xqwLpyVegUSBJ_16_x_-46" value="" style="line;strokeWidth=1;fillColor=none;align=left;verticalAlign=middle;spacingTop=-1;spacingLeft=3;spacingRight=3;rotatable=0;labelPosition=right;points=[];portConstraint=eastwest;strokeColor=inherit;" parent="7xqwLpyVegUSBJ_16_x_-44" vertex="1">
                    <mxGeometry y="100" width="200" height="8" as="geometry"/>
                </mxCell>
                <mxCell id="7xqwLpyVegUSBJ_16_x_-47" value="&lt;div&gt;+ Inquirer(FIRST_NAME: String, LAST_NAME: String,&lt;/div&gt;&lt;div&gt;SERVICES_PHONE:String, INFO:String)&lt;/div&gt;&lt;div&gt;+ getFirstName(): String&lt;/div&gt;&lt;div&gt;+ getLastName(): String&lt;/div&gt;&lt;div&gt;+ getInfo():String&lt;/div&gt;&lt;div&gt;+ getServicesPhone():String&lt;/div&gt;" style="text;strokeColor=none;fillColor=none;align=left;verticalAlign=top;spacingLeft=4;spacingRight=4;overflow=hidden;rotatable=0;points=[[0,0.5],[1,0.5]];portConstraint=eastwest;whiteSpace=wrap;html=1;" parent="7xqwLpyVegUSBJ_16_x_-44" vertex="1">
                    <mxGeometry y="108" width="200" height="140" as="geometry"/>
                </mxCell>
                <mxCell id="7xqwLpyVegUSBJ_16_x_-49" value="MedicalRecord" style="swimlane;fontStyle=1;align=center;verticalAlign=top;childLayout=stackLayout;horizontal=1;startSize=26;horizontalStack=0;resizeParent=1;resizeParentMax=0;resizeLast=0;collapsible=1;marginBottom=0;whiteSpace=wrap;html=1;" parent="1" vertex="1">
                    <mxGeometry x="630" y="1300" width="250" height="268" as="geometry"/>
                </mxCell>
                <mxCell id="7xqwLpyVegUSBJ_16_x_-50" value="&lt;div&gt;- location: Location&lt;/div&gt;&lt;div&gt;- treatmentDetails: String&lt;/div&gt;&lt;div&gt;- dateOfTreatment: String&lt;/div&gt;" style="text;strokeColor=none;fillColor=none;align=left;verticalAlign=top;spacingLeft=4;spacingRight=4;overflow=hidden;rotatable=0;points=[[0,0.5],[1,0.5]];portConstraint=eastwest;whiteSpace=wrap;html=1;" parent="7xqwLpyVegUSBJ_16_x_-49" vertex="1">
                    <mxGeometry y="26" width="250" height="64" as="geometry"/>
                </mxCell>
                <mxCell id="7xqwLpyVegUSBJ_16_x_-51" value="" style="line;strokeWidth=1;fillColor=none;align=left;verticalAlign=middle;spacingTop=-1;spacingLeft=3;spacingRight=3;rotatable=0;labelPosition=right;points=[];portConstraint=eastwest;strokeColor=inherit;" parent="7xqwLpyVegUSBJ_16_x_-49" vertex="1">
                    <mxGeometry y="90" width="250" height="8" as="geometry"/>
                </mxCell>
                <mxCell id="7xqwLpyVegUSBJ_16_x_-52" value="&lt;div&gt;+ MedicalRecord(location: Location, treatmentDetails:&lt;/div&gt;&lt;div&gt;string, dateOfTreatment: String)&lt;/div&gt;&lt;div&gt;+ getLocation(): Location&lt;/div&gt;&lt;div&gt;+ setLocation(location: Location): void&lt;/div&gt;&lt;div&gt;+ getTreatmentDetails(): String&lt;/div&gt;&lt;div&gt;+ setTreatmentDetails(treatmentDetails: String): void&lt;/div&gt;&lt;div&gt;+ getDateOfTreatment(): String&lt;/div&gt;&lt;div&gt;+ setDateOfTreatment(dateOfTreatment: String): void&lt;/div&gt;" style="text;strokeColor=none;fillColor=none;align=left;verticalAlign=top;spacingLeft=4;spacingRight=4;overflow=hidden;rotatable=0;points=[[0,0.5],[1,0.5]];portConstraint=eastwest;whiteSpace=wrap;html=1;" parent="7xqwLpyVegUSBJ_16_x_-49" vertex="1">
                    <mxGeometry y="98" width="250" height="170" as="geometry"/>
                </mxCell>
                <mxCell id="7xqwLpyVegUSBJ_16_x_-53" value="Use" style="endArrow=open;endSize=12;dashed=1;html=1;rounded=0;exitX=-0.009;exitY=0.19;exitDx=0;exitDy=0;exitPerimeter=0;entryX=0.006;entryY=0.603;entryDx=0;entryDy=0;entryPerimeter=0;" parent="1" source="7xqwLpyVegUSBJ_16_x_-50" target="7xqwLpyVegUSBJ_16_x_-8" edge="1">
                    <mxGeometry x="-0.0585" width="160" relative="1" as="geometry">
                        <mxPoint x="678" y="866" as="sourcePoint"/>
                        <mxPoint x="560" y="866" as="targetPoint"/>
                        <Array as="points">
                            <mxPoint x="530" y="1338"/>
                            <mxPoint x="530" y="1014"/>
                        </Array>
                        <mxPoint as="offset"/>
                    </mxGeometry>
                </mxCell>
                <mxCell id="7xqwLpyVegUSBJ_16_x_-54" value="IllegalArgumentException" style="swimlane;fontStyle=1;align=center;verticalAlign=top;childLayout=stackLayout;horizontal=1;startSize=26;horizontalStack=0;resizeParent=1;resizeParentMax=0;resizeLast=0;collapsible=1;marginBottom=0;whiteSpace=wrap;html=1;" parent="1" vertex="1">
                    <mxGeometry x="320" y="1338" width="160" height="120" as="geometry"/>
                </mxCell>
                <mxCell id="7xqwLpyVegUSBJ_16_x_-56" value="" style="line;strokeWidth=1;fillColor=none;align=left;verticalAlign=middle;spacingTop=-1;spacingLeft=3;spacingRight=3;rotatable=0;labelPosition=right;points=[];portConstraint=eastwest;strokeColor=inherit;" parent="7xqwLpyVegUSBJ_16_x_-54" vertex="1">
                    <mxGeometry y="26" width="160" height="94" as="geometry"/>
                </mxCell>
                <mxCell id="7xqwLpyVegUSBJ_16_x_-59" value="" style="endArrow=open;endFill=1;endSize=12;html=1;rounded=0;entryX=0.983;entryY=0.553;entryDx=0;entryDy=0;exitX=-0.013;exitY=0.093;exitDx=0;exitDy=0;exitPerimeter=0;entryPerimeter=0;" parent="1" source="7xqwLpyVegUSBJ_16_x_-52" target="7xqwLpyVegUSBJ_16_x_-56" edge="1">
                    <mxGeometry width="160" relative="1" as="geometry">
                        <mxPoint x="890" y="1490" as="sourcePoint"/>
                        <mxPoint x="1050" y="1490" as="targetPoint"/>
                    </mxGeometry>
                </mxCell>
                <mxCell id="7xqwLpyVegUSBJ_16_x_-60" value="IllegalArgumentException" style="swimlane;fontStyle=1;align=center;verticalAlign=top;childLayout=stackLayout;horizontal=1;startSize=26;horizontalStack=0;resizeParent=1;resizeParentMax=0;resizeLast=0;collapsible=1;marginBottom=0;whiteSpace=wrap;html=1;" parent="1" vertex="1">
                    <mxGeometry x="320" y="1478" width="160" height="120" as="geometry"/>
                </mxCell>
                <mxCell id="7xqwLpyVegUSBJ_16_x_-61" value="" style="line;strokeWidth=1;fillColor=none;align=left;verticalAlign=middle;spacingTop=-1;spacingLeft=3;spacingRight=3;rotatable=0;labelPosition=right;points=[];portConstraint=eastwest;strokeColor=inherit;" parent="7xqwLpyVegUSBJ_16_x_-60" vertex="1">
                    <mxGeometry y="26" width="160" height="94" as="geometry"/>
                </mxCell>
                <mxCell id="7xqwLpyVegUSBJ_16_x_-62" value="" style="endArrow=open;endFill=1;endSize=12;html=1;rounded=0;exitX=-0.005;exitY=0.853;exitDx=0;exitDy=0;exitPerimeter=0;" parent="1" source="7xqwLpyVegUSBJ_16_x_-52" edge="1">
                    <mxGeometry width="160" relative="1" as="geometry">
                        <mxPoint x="637" y="1424" as="sourcePoint"/>
                        <mxPoint x="480" y="1543" as="targetPoint"/>
                    </mxGeometry>
                </mxCell>
                <mxCell id="7xqwLpyVegUSBJ_16_x_-63" value="&amp;lt;&amp;lt;throws&amp;gt;&amp;gt;" style="text;html=1;align=center;verticalAlign=middle;resizable=0;points=[];autosize=1;strokeColor=none;fillColor=none;" parent="1" vertex="1">
                    <mxGeometry x="500" y="1538" width="90" height="30" as="geometry"/>
                </mxCell>
                <mxCell id="7xqwLpyVegUSBJ_16_x_-64" value="&amp;lt;&amp;lt;throws&amp;gt;&amp;gt;" style="text;html=1;align=center;verticalAlign=middle;resizable=0;points=[];autosize=1;strokeColor=none;fillColor=none;" parent="1" vertex="1">
                    <mxGeometry x="500" y="1410" width="90" height="30" as="geometry"/>
                </mxCell>
                <mxCell id="7xqwLpyVegUSBJ_16_x_-65" value="IllegalArgumentException" style="swimlane;fontStyle=1;align=center;verticalAlign=top;childLayout=stackLayout;horizontal=1;startSize=26;horizontalStack=0;resizeParent=1;resizeParentMax=0;resizeLast=0;collapsible=1;marginBottom=0;whiteSpace=wrap;html=1;" parent="1" vertex="1">
                    <mxGeometry x="2210" y="738" width="160" height="120" as="geometry"/>
                </mxCell>
                <mxCell id="7xqwLpyVegUSBJ_16_x_-66" value="" style="line;strokeWidth=1;fillColor=none;align=left;verticalAlign=middle;spacingTop=-1;spacingLeft=3;spacingRight=3;rotatable=0;labelPosition=right;points=[];portConstraint=eastwest;strokeColor=inherit;" parent="7xqwLpyVegUSBJ_16_x_-65" vertex="1">
                    <mxGeometry y="26" width="160" height="94" as="geometry"/>
                </mxCell>
                <mxCell id="7xqwLpyVegUSBJ_16_x_-68" value="" style="endArrow=open;endFill=1;endSize=12;html=1;rounded=0;exitX=0.002;exitY=0.137;exitDx=0;exitDy=0;exitPerimeter=0;entryX=0;entryY=0.5;entryDx=0;entryDy=0;" parent="1" target="7xqwLpyVegUSBJ_16_x_-65" edge="1">
                    <mxGeometry width="160" relative="1" as="geometry">
                        <mxPoint x="2029.9999999999998" y="805.1100000000001" as="sourcePoint"/>
                        <mxPoint x="2199.82" y="800" as="targetPoint"/>
                    </mxGeometry>
                </mxCell>
                <mxCell id="7xqwLpyVegUSBJ_16_x_-69" value="&amp;lt;&amp;lt;throws&amp;gt;&amp;gt;" style="text;html=1;align=center;verticalAlign=middle;resizable=0;points=[];autosize=1;strokeColor=none;fillColor=none;" parent="1" vertex="1">
                    <mxGeometry x="2080" y="810" width="90" height="30" as="geometry"/>
                </mxCell>
                <mxCell id="7xqwLpyVegUSBJ_16_x_-70" value="IllegalArgumentException" style="swimlane;fontStyle=1;align=center;verticalAlign=top;childLayout=stackLayout;horizontal=1;startSize=26;horizontalStack=0;resizeParent=1;resizeParentMax=0;resizeLast=0;collapsible=1;marginBottom=0;whiteSpace=wrap;html=1;" parent="1" vertex="1">
                    <mxGeometry x="1560" y="1270" width="160" height="120" as="geometry"/>
                </mxCell>
                <mxCell id="7xqwLpyVegUSBJ_16_x_-71" value="" style="line;strokeWidth=1;fillColor=none;align=left;verticalAlign=middle;spacingTop=-1;spacingLeft=3;spacingRight=3;rotatable=0;labelPosition=right;points=[];portConstraint=eastwest;strokeColor=inherit;" parent="7xqwLpyVegUSBJ_16_x_-70" vertex="1">
                    <mxGeometry y="26" width="160" height="94" as="geometry"/>
                </mxCell>
                <mxCell id="7xqwLpyVegUSBJ_16_x_-72" value="" style="endArrow=open;endFill=1;endSize=12;html=1;rounded=0;exitX=0.999;exitY=0.491;exitDx=0;exitDy=0;entryX=0.5;entryY=0;entryDx=0;entryDy=0;exitPerimeter=0;" parent="1" source="7xqwLpyVegUSBJ_16_x_-4" target="7xqwLpyVegUSBJ_16_x_-70" edge="1">
                    <mxGeometry width="160" relative="1" as="geometry">
                        <mxPoint x="1679" y="985" as="sourcePoint"/>
                        <mxPoint x="1670" y="1084" as="targetPoint"/>
                        <Array as="points">
                            <mxPoint x="1640" y="1210"/>
                        </Array>
                    </mxGeometry>
                </mxCell>
                <mxCell id="7xqwLpyVegUSBJ_16_x_-73" value="&amp;lt;&amp;lt;throws&amp;gt;&amp;gt;" style="text;html=1;align=center;verticalAlign=middle;resizable=0;points=[];autosize=1;strokeColor=none;fillColor=none;" parent="1" vertex="1">
                    <mxGeometry x="1510" y="1210" width="90" height="30" as="geometry"/>
                </mxCell>
                <mxCell id="7xqwLpyVegUSBJ_16_x_-74" value="" style="endArrow=open;endFill=1;endSize=12;html=1;rounded=0;exitX=1;exitY=0.014;exitDx=0;exitDy=0;entryX=0.75;entryY=0;entryDx=0;entryDy=0;exitPerimeter=0;" parent="1" source="7xqwLpyVegUSBJ_16_x_-4" target="7xqwLpyVegUSBJ_16_x_-70" edge="1">
                    <mxGeometry width="160" relative="1" as="geometry">
                        <mxPoint x="1510" y="984" as="sourcePoint"/>
                        <mxPoint x="1650" y="1038" as="targetPoint"/>
                        <Array as="points">
                            <mxPoint x="1680" y="1004"/>
                        </Array>
                    </mxGeometry>
                </mxCell>
                <mxCell id="7xqwLpyVegUSBJ_16_x_-75" value="&amp;lt;&amp;lt;throws&amp;gt;&amp;gt;" style="text;html=1;align=center;verticalAlign=middle;resizable=0;points=[];autosize=1;strokeColor=none;fillColor=none;" parent="1" vertex="1">
                    <mxGeometry x="1520" y="980" width="90" height="30" as="geometry"/>
                </mxCell>
                <mxCell id="7xqwLpyVegUSBJ_16_x_-77" value="" style="endArrow=diamondThin;endFill=0;endSize=24;html=1;rounded=0;entryX=0;entryY=0.5;entryDx=0;entryDy=0;exitX=0.5;exitY=0;exitDx=0;exitDy=0;" parent="1" source="7xqwLpyVegUSBJ_16_x_-49" target="7xqwLpyVegUSBJ_16_x_-4" edge="1">
                    <mxGeometry width="160" relative="1" as="geometry">
                        <mxPoint x="980" y="1180" as="sourcePoint"/>
                        <mxPoint x="1140" y="1180" as="targetPoint"/>
                        <Array as="points">
                            <mxPoint x="755" y="1214"/>
                        </Array>
                    </mxGeometry>
                </mxCell>
                <mxCell id="7xqwLpyVegUSBJ_16_x_-78" value="0..*" style="text;html=1;align=center;verticalAlign=middle;resizable=0;points=[];autosize=1;strokeColor=none;fillColor=none;" parent="1" vertex="1">
                    <mxGeometry x="750" y="1268" width="40" height="30" as="geometry"/>
                </mxCell>
                <mxCell id="7xqwLpyVegUSBJ_16_x_-79" value="1" style="text;html=1;align=center;verticalAlign=middle;resizable=0;points=[];autosize=1;strokeColor=none;fillColor=none;" parent="1" vertex="1">
                    <mxGeometry x="1030" y="1218" width="30" height="30" as="geometry"/>
                </mxCell>
                <mxCell id="7xqwLpyVegUSBJ_16_x_-80" value="" style="endArrow=diamondThin;endFill=1;endSize=24;html=1;rounded=0;entryX=0.75;entryY=0;entryDx=0;entryDy=0;exitX=0.5;exitY=0;exitDx=0;exitDy=0;" parent="1" source="7xqwLpyVegUSBJ_16_x_-29" target="7xqwLpyVegUSBJ_16_x_-1" edge="1">
                    <mxGeometry width="160" relative="1" as="geometry">
                        <mxPoint x="840" y="1170" as="sourcePoint"/>
                        <mxPoint x="1000" y="1170" as="targetPoint"/>
                        <Array as="points">
                            <mxPoint x="450" y="600"/>
                            <mxPoint x="1393" y="600"/>
                        </Array>
                    </mxGeometry>
                </mxCell>
                <mxCell id="7xqwLpyVegUSBJ_16_x_-81" value="*" style="text;html=1;align=center;verticalAlign=middle;resizable=0;points=[];autosize=1;strokeColor=none;fillColor=none;" parent="1" vertex="1">
                    <mxGeometry x="445" y="728" width="30" height="30" as="geometry"/>
                </mxCell>
                <mxCell id="7xqwLpyVegUSBJ_16_x_-82" value="1" style="text;html=1;align=center;verticalAlign=middle;resizable=0;points=[];autosize=1;strokeColor=none;fillColor=none;" parent="1" vertex="1">
                    <mxGeometry x="1395" y="730" width="30" height="30" as="geometry"/>
                </mxCell>
                <mxCell id="3gZXW8orgrcEtshI8kYw-5" value="&lt;p style=&quot;margin:0px;margin-top:4px;text-align:center;&quot;&gt;&lt;i&gt;&amp;lt;&amp;lt;&lt;/i&gt;enumeration&lt;i&gt;&amp;gt;&amp;gt;&lt;/i&gt;&lt;br&gt;&lt;span style=&quot;text-align: left;&quot;&gt;DietaryRestriction&lt;/span&gt;&lt;br&gt;&lt;/p&gt;&lt;hr size=&quot;1&quot; style=&quot;border-style:solid;&quot;&gt;&lt;p style=&quot;margin:0px;margin-left:4px;&quot;&gt;AVML - Asian vegetarian meal&lt;/p&gt;&lt;p style=&quot;margin:0px;margin-left:4px;&quot;&gt;DBML - Diabetic meal&lt;/p&gt;&lt;p style=&quot;margin:0px;margin-left:4px;&quot;&gt;GFML - Gluten intolerant meal&lt;/p&gt;&lt;p style=&quot;margin:0px;margin-left:4px;&quot;&gt;KSML - Kosher meal&lt;/p&gt;&lt;p style=&quot;margin:0px;margin-left:4px;&quot;&gt;LSML - Low salt meal&lt;/p&gt;&lt;p style=&quot;margin:0px;margin-left:4px;&quot;&gt;MOML - Muslim meal&lt;/p&gt;&lt;p style=&quot;margin:0px;margin-left:4px;&quot;&gt;PFML - Peanut-free meal&lt;/p&gt;&lt;p style=&quot;margin:0px;margin-left:4px;&quot;&gt;VGML - Vegan meal&lt;/p&gt;&lt;p style=&quot;margin:0px;margin-left:4px;&quot;&gt;VJML - Vegetarian Jain meal&lt;/p&gt;&lt;hr size=&quot;1&quot; style=&quot;border-style:solid;&quot;&gt;&lt;p style=&quot;margin:0px;margin-left:4px;&quot;&gt;&lt;br&gt;&lt;/p&gt;" style="verticalAlign=top;align=left;overflow=fill;html=1;whiteSpace=wrap;" parent="1" vertex="1">
                    <mxGeometry x="280" y="1050" width="190" height="210" as="geometry"/>
                </mxCell>
                <mxCell id="3gZXW8orgrcEtshI8kYw-6" value="" style="endArrow=none;startArrow=circlePlus;endFill=0;startFill=0;endSize=8;html=1;rounded=0;entryX=0.999;entryY=0.52;entryDx=0;entryDy=0;entryPerimeter=0;" parent="1" target="3gZXW8orgrcEtshI8kYw-5" edge="1">
                    <mxGeometry width="160" relative="1" as="geometry">
                        <mxPoint x="1070" y="1157.5" as="sourcePoint"/>
                        <mxPoint x="495" y="1152.5" as="targetPoint"/>
                    </mxGeometry>
                </mxCell>
                <mxCell id="u5-d1l7EPAgdOI_su9Vk-43" value="" style="endArrow=open;endFill=1;endSize=12;html=1;rounded=0;entryX=1.007;entryY=0.798;entryDx=0;entryDy=0;entryPerimeter=0;exitX=0.5;exitY=0;exitDx=0;exitDy=0;" parent="1" source="7xqwLpyVegUSBJ_16_x_-44" target="7xqwLpyVegUSBJ_16_x_-37" edge="1">
                    <mxGeometry width="160" relative="1" as="geometry">
                        <mxPoint x="1940" y="970" as="sourcePoint"/>
                        <mxPoint x="1780" y="1300" as="targetPoint"/>
                        <Array as="points">
                            <mxPoint x="1920" y="970"/>
                            <mxPoint x="2160" y="970"/>
                            <mxPoint x="2160" y="865"/>
                        </Array>
                    </mxGeometry>
                </mxCell>
                <mxCell id="u5-d1l7EPAgdOI_su9Vk-44" value="«File»&lt;br&gt;&lt;b&gt;Name&lt;/b&gt;" style="html=1;whiteSpace=wrap;" parent="1" vertex="1">
                    <mxGeometry x="980" y="470" width="110" height="50" as="geometry"/>
                </mxCell>
            </root>
        </mxGraphModel>
    </diagram>
</mxfile>